<svg width="24" height="24" viewBox="0 0 24 24" fill="none" xmlns="http://www.w3.org/2000/svg">
<path d="M16.1752 11.0002L11.2752 6.1002C11.0752 5.9002 10.9792 5.66686 10.9872 5.4002C10.9952 5.13353 11.0995 4.9002 11.3002 4.7002C11.5002 4.51686 11.7335 4.42086 12.0002 4.4122C12.2668 4.40353 12.5002 4.49953 12.7002 4.7002L19.3002 11.3002C19.4002 11.4002 19.4712 11.5085 19.5132 11.6252C19.5552 11.7419 19.5755 11.8669 19.5742 12.0002C19.5728 12.1335 19.5518 12.2585 19.5112 12.3752C19.4705 12.4919 19.3998 12.6002 19.2992 12.7002L12.6992 19.3002C12.5158 19.4835 12.2865 19.5752 12.0112 19.5752C11.7358 19.5752 11.4985 19.4835 11.2992 19.3002C11.0992 19.1002 10.9992 18.8625 10.9992 18.5872C10.9992 18.3119 11.0992 18.0745 11.2992 17.8752L16.1752 13.0002H5.00016C4.71682 13.0002 4.47916 12.9042 4.28716 12.7122C4.09516 12.5202 3.99949 12.2829 4.00016 12.0002C4.00082 11.7175 4.09682 11.4799 4.28816 11.2872C4.47949 11.0945 4.71682 10.9989 5.00016 11.0002H16.1752Z" fill="black"/>
</svg>
