<svg width="21" height="21" viewBox="0 0 21 21" fill="none" xmlns="http://www.w3.org/2000/svg">
<g clip-path="url(#clip0_82_36)">
<path d="M5.45033 20.8426H1.30393V7.49258H5.45033V20.8426ZM3.37493 5.67158C2.04933 5.67158 0.973633 4.57358 0.973633 3.24798C0.973633 1.92238 2.04933 0.84668 3.37493 0.84668C4.70053 0.84668 5.77613 1.92238 5.77613 3.24798C5.77613 4.57358 4.70043 5.67158 3.37493 5.67158ZM20.9689 20.8426H16.8314V14.344C16.8314 12.7953 16.8002 10.8091 14.6757 10.8091C12.5199 10.8091 12.1896 12.4918 12.1896 14.2324V20.8426H8.04773V7.49258H12.0245V9.31358H12.0825C12.636 8.26468 13.9883 7.15778 16.0057 7.15778C20.2012 7.15778 20.9734 9.92058 20.9734 13.5091V20.8423L20.9689 20.8426Z" fill="#171717"/>
</g>
<defs>
<clipPath id="clip0_82_36">
<rect width="21" height="21" fill="white"/>
</clipPath>
</defs>
</svg>
