<svg width="21" height="21" viewBox="0 0 21 21" fill="none" xmlns="http://www.w3.org/2000/svg">
<g clip-path="url(#clip0_82_38)">
<path d="M10.9758 5.71785C8.13811 5.71785 5.84921 8.00675 5.84921 10.8445C5.84921 13.6822 8.13811 15.9711 10.9758 15.9711C13.8135 15.9711 16.1024 13.6822 16.1024 10.8445C16.1024 8.00675 13.8135 5.71785 10.9758 5.71785ZM10.9758 14.1775C9.142 14.1775 7.64281 12.6828 7.64281 10.8445C7.64281 9.00625 9.13751 7.51145 10.9758 7.51145C12.8141 7.51145 14.3088 9.00615 14.3088 10.8445C14.3088 12.6828 12.8096 14.1775 10.9758 14.1775ZM17.5079 5.50815C17.5079 6.17296 16.9725 6.70395 16.3121 6.70395C15.6473 6.70395 15.1164 6.16853 15.1164 5.50815C15.1164 4.8478 15.6518 4.31235 16.3121 4.31235C16.9725 4.31235 17.5079 4.84776 17.5079 5.50815ZM20.9033 6.72175C20.8275 5.11995 20.4616 3.70115 19.2881 2.53215C18.1191 1.36315 16.7003 0.997253 15.0985 0.916953C13.4476 0.823255 8.49951 0.823255 6.84871 0.916953C5.25141 0.992803 3.83251 1.35867 2.65911 2.52765C1.48571 3.69663 1.12421 5.11545 1.04391 6.71725C0.950209 8.36815 0.950209 13.3163 1.04391 14.9672C1.11976 16.569 1.48563 17.9878 2.65911 19.1568C3.83259 20.3258 5.24691 20.6917 6.84871 20.772C8.49961 20.8657 13.4477 20.8657 15.0985 20.772C16.7003 20.6961 18.1191 20.3303 19.2881 19.1568C20.4571 17.9878 20.823 16.569 20.9033 14.9672C20.997 13.3163 20.997 8.37265 20.9033 6.72175ZM18.7706 16.7388C18.4225 17.6133 17.7488 18.2871 16.8698 18.6396C15.5536 19.1616 12.4304 19.0411 10.9758 19.0411C9.52131 19.0411 6.39351 19.1571 5.08181 18.6396C4.20729 18.2915 3.53361 17.6178 3.18111 16.7388C2.65908 15.4226 2.77955 12.2994 2.77955 10.8448C2.77955 9.39025 2.66354 6.26245 3.18111 4.95075C3.52913 4.07624 4.20291 3.40255 5.08181 3.05005C6.39801 2.52802 9.52131 2.64849 10.9758 2.64849C12.4304 2.64849 15.5581 2.53248 16.8698 3.05005C17.7444 3.39807 18.4181 4.07185 18.7706 4.95075C19.2926 6.26695 19.1721 9.39025 19.1721 10.8448C19.1721 12.2994 19.2926 15.4271 18.7706 16.7388Z" fill="#171717"/>
</g>
<defs>
<clipPath id="clip0_82_38">
<rect width="21" height="21" fill="white"/>
</clipPath>
</defs>
</svg>
